<svg width="128" height="128" viewBox="0 0 128 128" fill="none" xmlns="http://www.w3.org/2000/svg">
<rect width="128" height="128" rx="18" fill="#07070B"/>
<path d="M52.7255 99.3529C52.7255 99.3529 41 97.0861 41 87.3368C41 77.5876 41 69.9386 41 69.9386V48.8431" fill="#07070B"/>
<path d="M52.7255 99.3529C52.7255 99.3529 41 97.0861 41 87.3368C41 77.5876 41 69.9386 41 69.9386V48.8431" stroke="white" stroke-width="16" stroke-linecap="round" stroke-linejoin="round"/>
<path d="M75.2745 29C75.2745 29 87 31.2668 87 41.0161C87 50.7653 87 58.4143 87 58.4143V79.5098" fill="#07070B"/>
<path d="M75.2745 29C75.2745 29 87 31.2668 87 41.0161C87 50.7653 87 58.4143 87 58.4143V79.5098" stroke="white" stroke-width="16" stroke-linecap="round" stroke-linejoin="round"/>
<path d="M86.098 79.5098L58.0214 60.4177L41 48.8431" fill="#07070B"/>
<path d="M86.098 79.5098L58.0214 60.4177L41 48.8431" stroke="white" stroke-width="16" stroke-linecap="round" stroke-linejoin="round"/>
</svg>
